<?xml version="1.0" encoding="utf-8"?>
<!-- Generator: Adobe Illustrator 27.5.0, SVG Export Plug-In . SVG Version: 6.00 Build 0)  -->
<svg version="1.1" xmlns="http://www.w3.org/2000/svg" xmlns:xlink="http://www.w3.org/1999/xlink" x="0px" y="0px"
	 viewBox="0 0 500 500" style="enable-background:new 0 0 500 500;" xml:space="preserve">
<g id="BACKGROUND">
	<rect style="fill:#C8E7F7;" width="500" height="500"/>
</g>
<g id="OBJECTS">
	<g>
		<defs>
			<rect id="SVGID_1_" width="500" height="500"/>
		</defs>
		<clipPath id="SVGID_00000100342932984326959180000002277148164008140936_">
			<use xlink:href="#SVGID_1_"  style="overflow:visible;"/>
		</clipPath>
		<g style="clip-path:url(#SVGID_00000100342932984326959180000002277148164008140936_);">
			
				<linearGradient id="SVGID_00000179613470644703316530000004218120147750819976_" gradientUnits="userSpaceOnUse" x1="104.8812" y1="137.1929" x2="103.578" y2="216.0342">
				<stop  offset="0" style="stop-color:#FFFFFF"/>
				<stop  offset="1" style="stop-color:#C8E7F7"/>
			</linearGradient>
			<path style="fill:url(#SVGID_00000179613470644703316530000004218120147750819976_);" d="M197.181,181.969
				c-0.038,0-0.075,0.006-0.114,0.006c-1.201-13.113-12.223-23.385-25.649-23.385c-8.3,0-15.678,3.929-20.389,10.024
				c-3.378-2.153-7.386-3.405-11.688-3.405c-2.609,0-5.111,0.46-7.43,1.302c-2.314-4.167-6.755-6.99-11.86-6.99
				c-2.475,0-4.787,0.673-6.785,1.831c-2.063-12.794-13.153-22.567-26.529-22.567c-4.16,0-8.098,0.946-11.613,2.633
				c-1.957-4.593-6.222-7.954-11.335-8.662c1.218-2.282,1.913-4.886,1.913-7.653c0-8.997-7.293-16.29-16.29-16.29
				c-0.193,0-0.379,0.022-0.57,0.029c0.003-0.173,0.013-0.344,0.013-0.518c0-15.114-12.252-27.366-27.366-27.366
				c-15.114,0-27.366,12.252-27.366,27.366c0,6.81,2.493,13.033,6.608,17.822v82.191h134.223c1.417,0.29,2.885,0.442,4.388,0.442
				c1.503,0,2.97-0.152,4.388-0.442h18.287c2.914,1.143,6.083,1.778,9.403,1.778c3.319,0,6.489-0.635,9.403-1.778h0.587
				c3.021,5.616,8.949,9.435,15.773,9.435c9.887,0,17.901-8.015,17.901-17.901C215.083,189.984,207.068,181.969,197.181,181.969z"/>
			
				<linearGradient id="SVGID_00000085247813113409729750000002093823572194949823_" gradientUnits="userSpaceOnUse" x1="165.6494" y1="118.9486" x2="164.3462" y2="197.7899" gradientTransform="matrix(-1 0 0 1 565.6979 0)">
				<stop  offset="0" style="stop-color:#FFFFFF"/>
				<stop  offset="1" style="stop-color:#C8E7F7"/>
			</linearGradient>
			<path style="fill:url(#SVGID_00000085247813113409729750000002093823572194949823_);" d="M307.748,163.725
				c0.038,0,0.075,0.005,0.113,0.006c1.201-13.113,12.223-23.385,25.649-23.385c8.3,0,15.678,3.929,20.389,10.024
				c3.378-2.153,7.386-3.405,11.688-3.405c2.609,0,5.111,0.46,7.43,1.301c2.314-4.167,6.755-6.99,11.86-6.99
				c2.475,0,4.788,0.674,6.785,1.831c2.063-12.794,13.153-22.567,26.529-22.567c4.16,0,8.098,0.946,11.613,2.633
				c1.957-4.593,6.222-7.954,11.335-8.662c-1.218-2.282-1.913-4.886-1.913-7.653c0-8.996,7.293-16.29,16.289-16.29
				c0.193,0,0.38,0.022,0.57,0.029c-0.003-0.173-0.013-0.344-0.013-0.518c0-15.114,12.252-27.366,27.367-27.366
				c15.114,0,27.366,12.252,27.366,27.366c0,6.81-2.493,13.033-6.608,17.822v82.191H369.976c-1.417,0.29-2.885,0.442-4.388,0.442
				c-1.503,0-2.97-0.152-4.388-0.442h-18.287c-2.914,1.143-6.083,1.778-9.403,1.778c-3.319,0-6.489-0.635-9.403-1.778h-0.587
				c-3.021,5.616-8.949,9.435-15.773,9.435c-9.887,0-17.901-8.015-17.901-17.901C289.847,171.74,297.862,163.725,307.748,163.725z"
				/>
			<polyline style="fill:#526382;" points="500,272.196 0,272.196 0,375.146 500,375.146 500,272.196 			"/>
			<path style="fill:#CFCE52;" d="M0.731,147.092c0,0,35.375,13.683,63.502,25.412c28.127,11.729,88.724,23.457,128.47,33.231
				c39.747,9.774,99.692,35.101,140.09,44.265c40.398,9.164,76.235,22.196,76.235,22.196H0L0.731,147.092z"/>
			<path style="fill:#9C9E47;" d="M500,127.545c0,0-62.302,21.339-111.822,39.747c-49.52,18.407-105.231,25.412-131.457,29.973
				c-26.226,4.561-86.185,41.077-102.597,52.736s-38.837,22.196-38.837,22.196H500V127.545z"/>
			<path style="fill:#858640;" d="M286.531,210.115c15.638,4.09,65.484,31.315,65.484,31.315s8.812-18.423,12.225-24.779
				c3.413-6.356,33.385-10.265,44.788-13.197c11.403-2.932,12.388-15.638,25.579-27.366c13.191-11.729,25.972-17.593,43.038-23.457
				C494.711,146.766,500,127.545,500,127.545s-62.302,21.339-111.822,39.747c-49.52,18.407-105.231,25.412-131.457,29.973
				c-26.226,4.561-86.185,41.077-102.597,52.736c-16.412,11.659-38.837,22.196-38.837,22.196s68.987-12.233,101.85-27.529
				C250,229.37,270.893,206.024,286.531,210.115z"/>
			<path style="fill:#C3BF4C;" d="M65.862,195.961c0,0,0.111,10.425,4.073,16.507c3.963,6.081,21.421,9.466,30.068,9.294
				c8.646-0.172,31.968-1.475,48.108,5.475c16.14,6.95,20.484,18.211,42.637,27.784c22.154,9.573,105.556-1.509,132.923,2.077
				c27.367,3.587,85.357,15.098,85.357,15.098S373.191,259.164,332.793,250c-40.398-9.165-100.344-34.492-140.09-44.265
				c-39.747-9.774-100.344-21.502-128.47-33.231c-28.127-11.729-63.502-25.412-63.502-25.412s3.665,30.5,13.656,39.902
				C24.378,196.395,65.862,195.961,65.862,195.961z"/>
			<rect y="375.146" style="fill:#3A404C;" width="500" height="11.729"/>
			<rect y="386.875" style="fill:#D8C8BB;" width="500" height="113.125"/>
			<polygon style="fill:#C7D0E1;" points="379.056,224.659 379.056,279.363 500,327.581 500,208.993 			"/>
			<g>
				<path style="fill:#41536D;" d="M290.44,307.463c0,2.174-82.25,3.937-183.71,3.937s-183.71-1.762-183.71-3.937
					c0-2.174,82.25-3.937,183.71-3.937S290.44,305.289,290.44,307.463z"/>
				<path style="fill:#FFFFFF;" d="M0,230.495c0,0,145.789,0.977,170.223,0c24.434-0.977,71.264-0.945,79.777-1.124
					c8.513-0.179,22.196,5.034,30.341,12.527c8.145,7.493,20.199,8.145,23.783,16.615c3.584,8.471-2.606,22.154-39.747,27.692
					c-37.14,5.538-126.407,2.281-155.402,4.235c-28.995,1.955-114.353,1.955-119.24,1.955c-24,0-46.238-7.072-57.991-14.661
					c-19.005-12.271-26.389-30.516-28.995-48.368c-2.093-14.338-1.52-41.214-1.52-41.214s14.986-2.606,18.896,0
					c3.91,2.606,13.249,24.75,14.552,28.333c1.303,3.584,10.208,12.885,10.208,12.885L0,230.495z"/>
				<rect x="256.721" y="238.151" style="fill:#3A404C;" width="7.982" height="6.516"/>
				<path style="fill:#3A404C;" d="M268.721,238.151v6.516c0,0,8.926,0.309,14.128-0.741c0,0-1.293-0.966-2.508-2.028
					c-1.215-1.062-3.433-2.864-4.79-3.747H268.721z"/>
				<path style="fill:#3A404C;" d="M73.193,259.379c0,1.26-0.729,2.281-1.629,2.281c-0.9,0-1.629-1.021-1.629-2.281
					c0-1.259,0.729-2.28,1.629-2.28C72.464,257.098,73.193,258.119,73.193,259.379z"/>
				<path style="fill:#3A404C;" d="M67.491,259.379c0,1.26-0.729,2.281-1.629,2.281c-0.9,0-1.629-1.021-1.629-2.281
					c0-1.259,0.729-2.28,1.629-2.28C66.761,257.098,67.491,258.119,67.491,259.379z"/>
				<path style="fill:#3A404C;" d="M61.788,259.379c0,1.26-0.729,2.281-1.629,2.281c-0.9,0-1.629-1.021-1.629-2.281
					c0-1.259,0.729-2.28,1.629-2.28C61.059,257.098,61.788,258.119,61.788,259.379z"/>
				<path style="fill:#3A404C;" d="M56.086,259.379c0,1.26-0.729,2.281-1.629,2.281c-0.9,0-1.629-1.021-1.629-2.281
					c0-1.259,0.729-2.28,1.629-2.28C55.357,257.098,56.086,258.119,56.086,259.379z"/>
				<path style="fill:#3A404C;" d="M79.206,259.379c0,1.26-0.729,2.281-1.629,2.281c-0.9,0-1.629-1.021-1.629-2.281
					c0-1.259,0.729-2.28,1.629-2.28C78.477,257.098,79.206,258.119,79.206,259.379z"/>
				<path style="fill:#3A404C;" d="M85.22,259.379c0,1.26-0.729,2.281-1.629,2.281c-0.9,0-1.629-1.021-1.629-2.281
					c0-1.259,0.729-2.28,1.629-2.28C84.491,257.098,85.22,258.119,85.22,259.379z"/>
				<path style="fill:#3A404C;" d="M91.234,259.379c0,1.26-0.729,2.281-1.629,2.281c-0.9,0-1.629-1.021-1.629-2.281
					c0-1.259,0.729-2.28,1.629-2.28C90.504,257.098,91.234,258.119,91.234,259.379z"/>
				<path style="fill:#3A404C;" d="M97.247,259.379c0,1.26-0.729,2.281-1.629,2.281c-0.9,0-1.629-1.021-1.629-2.281
					c0-1.259,0.729-2.28,1.629-2.28C96.518,257.098,97.247,258.119,97.247,259.379z"/>
				<path style="fill:#3A404C;" d="M103.261,259.379c0,1.26-0.729,2.281-1.629,2.281c-0.9,0-1.629-1.021-1.629-2.281
					c0-1.259,0.729-2.28,1.629-2.28C102.531,257.098,103.261,258.119,103.261,259.379z"/>
				<path style="fill:#3A404C;" d="M109.274,259.379c0,1.26-0.729,2.281-1.629,2.281c-0.9,0-1.629-1.021-1.629-2.281
					c0-1.259,0.729-2.28,1.629-2.28C108.545,257.098,109.274,258.119,109.274,259.379z"/>
				<path style="fill:#3A404C;" d="M115.288,259.379c0,1.26-0.729,2.281-1.629,2.281c-0.9,0-1.629-1.021-1.629-2.281
					c0-1.259,0.729-2.28,1.629-2.28C114.558,257.098,115.288,258.119,115.288,259.379z"/>
				<path style="fill:#3A404C;" d="M121.301,259.379c0,1.26-0.729,2.281-1.629,2.281c-0.9,0-1.629-1.021-1.629-2.281
					c0-1.259,0.729-2.28,1.629-2.28C120.572,257.098,121.301,258.119,121.301,259.379z"/>
				<path style="fill:#3A404C;" d="M127.315,259.379c0,1.26-0.729,2.281-1.629,2.281c-0.9,0-1.629-1.021-1.629-2.281
					c0-1.259,0.729-2.28,1.629-2.28C126.585,257.098,127.315,258.119,127.315,259.379z"/>
				<path style="fill:#3A404C;" d="M133.328,259.379c0,1.26-0.729,2.281-1.629,2.281c-0.9,0-1.629-1.021-1.629-2.281
					c0-1.259,0.729-2.28,1.629-2.28C132.599,257.098,133.328,258.119,133.328,259.379z"/>
				<path style="fill:#3A404C;" d="M139.342,259.379c0,1.26-0.729,2.281-1.629,2.281c-0.9,0-1.629-1.021-1.629-2.281
					c0-1.259,0.729-2.28,1.629-2.28C138.612,257.098,139.342,258.119,139.342,259.379z"/>
				<path style="fill:#3A404C;" d="M145.355,259.379c0,1.26-0.729,2.281-1.629,2.281c-0.9,0-1.629-1.021-1.629-2.281
					c0-1.259,0.729-2.28,1.629-2.28C144.626,257.098,145.355,258.119,145.355,259.379z"/>
				<path style="fill:#3A404C;" d="M151.369,259.379c0,1.26-0.729,2.281-1.629,2.281c-0.9,0-1.629-1.021-1.629-2.281
					c0-1.259,0.729-2.28,1.629-2.28C150.639,257.098,151.369,258.119,151.369,259.379z"/>
				<path style="fill:#3A404C;" d="M157.382,259.379c0,1.26-0.729,2.281-1.629,2.281c-0.9,0-1.629-1.021-1.629-2.281
					c0-1.259,0.729-2.28,1.629-2.28C156.653,257.098,157.382,258.119,157.382,259.379z"/>
				<rect x="229.859" y="288.454" style="fill:#FFFFFF;" width="8.292" height="3.941"/>
				<rect x="232.938" y="292.395" style="fill:#BFBFBF;" width="2.118" height="5.701"/>
				<circle style="fill:#3A404C;" cx="234.005" cy="302.332" r="4.235"/>
				<circle style="fill:#BFBFBF;" cx="234.005" cy="302.332" r="2.715"/>
				<rect x="-2.349" y="290.561" style="fill:#FFFFFF;" width="8.292" height="3.941"/>
				<path style="opacity:0.71;fill:#C2C5CB;" d="M231.493,275.074c-51.149,0.652-217.954-4.561-268.825-6.627
					c-24.142-0.981-41.49-8.303-53.068-15.727c4.557,9.46,11.54,18.167,22.144,25.014c11.753,7.589,33.991,14.661,57.991,14.661
					c4.887,0,90.244,0,119.24-1.955c28.995-1.955,118.262,1.303,155.402-4.235c17.252-2.573,27.818-6.903,33.836-11.652
					C285.415,275.587,264.497,274.654,231.493,275.074z"/>
				<rect x="0.731" y="294.501" style="fill:#BFBFBF;" width="2.118" height="5.701"/>
				<path style="fill:#3A404C;" d="M-2.438,304.438c0-2.339,1.896-4.235,4.235-4.235c2.339,0,4.235,1.896,4.235,4.235
					c0,2.339-1.896,4.235-4.235,4.235C-0.542,308.673-2.438,306.777-2.438,304.438z"/>
				<path style="fill:#BFBFBF;" d="M-0.918,304.438c0-1.499,1.216-2.715,2.715-2.715c1.499,0,2.715,1.215,2.715,2.715
					c0,1.499-1.216,2.715-2.715,2.715C0.298,307.153-0.918,305.937-0.918,304.438z"/>
				<path style="fill:#F8F7F8;" d="M13.518,257.861c0,0,72.92,7.819,89.564,10.425c16.644,2.606,22.182,6.516,14.038,14.335
					s-185.701,11.729-204.597,9.774c-11.366,0-9.774-10.751-5.538-12.706C-88.781,277.735,13.518,257.861,13.518,257.861z"/>
				<path style="fill:#5C70A7;" d="M-71.188,283.273c4.72-3.267,71.021-19.353,92.676-24.55c-4.95-0.538-7.971-0.862-7.971-0.862
					s-102.298,19.873-106.534,21.828s-5.827,12.706,5.538,12.706c2.429,0.251,7.484,0.405,14.458,0.467
					C-73.969,289.629-74.356,285.466-71.188,283.273z"/>
				<path style="fill:#5C70A7;" d="M-97.25,229.37h42.135c0,0-8.905-9.301-10.208-12.885c-1.303-3.584-10.643-25.727-14.552-28.334
					c-3.91-2.606-18.896,0-18.896,0s-0.573,26.875,1.52,41.214C-97.251,229.368-97.251,229.369-97.25,229.37z"/>
				<path style="fill:#4D6499;" d="M-92.267,187.303c-3.591,0.343-6.504,0.849-6.504,0.849s-0.573,26.875,1.52,41.214
					c0,0.001,0,0.003,0.001,0.004h22.853C-86.869,216.777-90.985,199.393-92.267,187.303z"/>
			</g>
			<g>
				<g>
					<path style="fill:#B79B86;" d="M85.22,386.875c-6.889,7.796-13.859,15.517-20.841,23.228l-21.037,23.047L22.136,456.04
						l-10.664,11.39L0.731,478.748l10.381-11.65l10.459-11.579l21.038-23.046l21.208-22.889
						C70.916,401.982,78.027,394.391,85.22,386.875z"/>
				</g>
				<g>
					<path style="fill:#B79B86;" d="M142.097,386.875c-0.383,9.44-0.874,18.873-1.383,28.305l-1.648,28.289l-1.879,28.274
						l-1.022,14.132L135.038,500l0.638-14.156l0.743-14.149l1.65-28.289l1.881-28.274
						C140.618,405.71,141.303,396.289,142.097,386.875z"/>
				</g>
				<g>
					<path style="fill:#B79B86;" d="M229.192,386.875c0.586,9.419,1.063,18.842,1.523,28.266l1.257,28.277l1.026,28.286
						l0.431,14.146L233.753,500l-0.815-14.131l-0.71-14.135l-1.255-28.277l-1.024-28.286
						C229.649,405.741,229.366,396.31,229.192,386.875z"/>
				</g>
				<g>
					<path style="fill:#B79B86;" d="M312.594,386.875c2.805,9.372,5.505,18.774,8.188,28.179l7.931,28.25l7.708,28.312l3.775,14.178
						L343.87,500l-4.146-14.075l-4.044-14.104l-7.93-28.251l-7.707-28.312C317.515,405.81,315.002,396.357,312.594,386.875z"/>
				</g>
				<g>
					<path style="fill:#B79B86;" d="M382.313,386.875c6.255,9.315,12.417,18.69,18.566,28.074l18.342,28.218l18.148,28.344
						l9.005,14.216L455.291,500l-9.328-14.008l-9.239-14.065l-18.341-28.219l-18.146-28.345
						C394.222,405.893,388.222,396.414,382.313,386.875z"/>
				</g>
				<g>
					<path style="fill:#B79B86;" d="M455.291,386.875c3.866,3.324,7.658,6.729,11.438,10.145c3.782,3.415,7.503,6.896,11.257,10.34
						c3.699,3.504,7.428,6.976,11.099,10.509l5.493,5.315c1.806,1.798,3.636,3.571,5.422,5.392c-1.94-1.655-3.836-3.357-5.756-5.033
						l-5.684-5.111c-3.78-3.417-7.503-6.895-11.256-10.341c-3.697-3.506-7.428-6.975-11.098-10.511
						C462.536,394.046,458.876,390.5,455.291,386.875z"/>
				</g>
				<g>
					<polygon style="fill:#B79B86;" points="0,400.558 62.5,400.315 125,400.226 250,400.059 375,400.225 437.5,400.313 
						500,400.558 437.5,400.803 375,400.89 250,401.057 125,400.889 62.5,400.801 					"/>
				</g>
				<g>
					<polygon style="fill:#B79B86;" points="0,445.3 62.5,445.057 125,444.968 250,444.801 375,444.967 437.5,445.055 500,445.3 
						437.5,445.544 375,445.632 250,445.799 125,445.631 62.5,445.543 					"/>
				</g>
			</g>
			<g>
				<polygon style="opacity:0.3;fill:#FFFFFF;" points="90.079,0 306.31,377.21 321.866,377.21 108.649,0 				"/>
				<polygon style="opacity:0.3;fill:#FFFFFF;" points="56.848,0 273.08,377.21 288.635,377.21 75.418,0 				"/>
			</g>
			<rect x="259.325" y="64.504" style="fill:#3A404C;" width="216.933" height="121.194"/>
			<rect x="364.24" style="fill:#3A404C;" width="9.877" height="64.504"/>
			<rect x="124.287" style="fill:#3A404C;" width="10.751" height="375.146"/>
			<polygon style="fill:#3A404C;" points="0,0 124.287,100.83 124.287,86.169 17.102,0 			"/>
			<polygon style="fill:#3A404C;" points="259.325,0 135.038,100.83 135.038,86.169 242.223,0 			"/>
			<polygon style="fill:#3A404C;" points="379.056,261.194 379.056,279.363 500,327.581 500,298.218 			"/>
			<polygon style="fill:#E4E9F2;" points="397.865,222.223 397.865,286.862 401.422,288.28 401.422,221.762 			"/>
			<polygon style="fill:#E4E9F2;" points="434.607,217.463 434.607,301.51 440.873,304.008 440.873,216.652 			"/>
			<polygon style="fill:#E4E9F2;" points="484.803,210.961 484.803,321.522 491.336,324.127 491.336,210.115 			"/>
			<rect x="263.074" y="68.574" style="fill:#ECF6FE;" width="209.47" height="113.055"/>
			<rect x="263.074" y="68.574" style="fill:#7FBAD3;" width="209.47" height="7.822"/>
			<rect x="268.721" y="92.034" style="fill:#7FBAD3;" width="36.286" height="5.213"/>
			<rect x="268.721" y="81.608" style="fill:#C7D7E2;" width="36.286" height="5.213"/>
			<rect x="327.774" y="92.034" style="fill:#6AA6BA;" width="26.753" height="5.213"/>
			<rect x="374.117" y="92.034" style="fill:#6AA6BA;" width="19.925" height="5.213"/>
			<rect x="327.774" y="81.608" style="fill:#C7D7E2;" width="26.753" height="5.213"/>
			<rect x="374.117" y="81.608" style="fill:#C7D7E2;" width="19.925" height="5.213"/>
			<rect x="413.399" y="81.608" style="fill:#C7D7E2;" width="46.905" height="5.213"/>
			<text transform="matrix(1 0 0 1 413.3993 97.2462)" style="fill:#598D99; font-family:'Montserrat-Bold'; font-size:8.2367px;">CANCELED</text>
			<rect x="268.721" y="105.717" style="fill:#7FBAD3;" width="36.286" height="5.213"/>
			<rect x="327.774" y="105.717" style="fill:#6AA6BA;" width="26.753" height="5.213"/>
			<rect x="374.117" y="105.717" style="fill:#6AA6BA;" width="19.925" height="5.213"/>
			<text transform="matrix(1 0 0 1 413.3993 110.9295)" style="fill:#598D99; font-family:'Montserrat-Bold'; font-size:8.2367px;">CANCELED</text>
			<rect x="268.721" y="119.4" style="fill:#7FBAD3;" width="36.286" height="5.213"/>
			<rect x="327.774" y="119.4" style="fill:#6AA6BA;" width="26.753" height="5.213"/>
			<rect x="374.117" y="119.4" style="fill:#6AA6BA;" width="19.925" height="5.213"/>
			<text transform="matrix(1 0 0 1 413.3993 124.6127)" style="fill:#598D99; font-family:'Montserrat-Bold'; font-size:8.2367px;">CANCELED</text>
			<rect x="268.721" y="133.083" style="fill:#7FBAD3;" width="36.286" height="5.213"/>
			<rect x="327.774" y="133.083" style="fill:#6AA6BA;" width="26.753" height="5.213"/>
			<rect x="374.117" y="133.083" style="fill:#6AA6BA;" width="19.925" height="5.213"/>
			<text transform="matrix(1 0 0 1 413.3993 138.2959)" style="fill:#598D99; font-family:'Montserrat-Bold'; font-size:8.2367px;">CANCELED</text>
			<rect x="268.721" y="146.766" style="fill:#7FBAD3;" width="36.286" height="5.213"/>
			<rect x="327.774" y="146.766" style="fill:#6AA6BA;" width="26.753" height="5.213"/>
			<rect x="374.117" y="146.766" style="fill:#6AA6BA;" width="19.925" height="5.213"/>
			<text transform="matrix(1 0 0 1 413.3993 151.9792)" style="fill:#598D99; font-family:'Montserrat-Bold'; font-size:8.2367px;">CANCELED</text>
			<rect x="268.721" y="160.45" style="fill:#7FBAD3;" width="36.286" height="5.213"/>
			<rect x="327.774" y="160.45" style="fill:#6AA6BA;" width="26.753" height="5.213"/>
			<rect x="374.117" y="160.45" style="fill:#6AA6BA;" width="19.925" height="5.213"/>
			<text transform="matrix(1 0 0 1 413.3993 165.6624)" style="fill:#598D99; font-family:'Montserrat-Bold'; font-size:8.2367px;">CANCELED</text>
			<rect x="268.721" y="174.133" style="fill:#7FBAD3;" width="36.286" height="5.213"/>
			<rect x="327.774" y="174.133" style="fill:#6AA6BA;" width="26.753" height="5.213"/>
			<rect x="374.117" y="174.133" style="fill:#6AA6BA;" width="19.925" height="5.213"/>
			<text transform="matrix(1 0 0 1 413.3993 179.3456)" style="fill:#598D99; font-family:'Montserrat-Bold'; font-size:8.2367px;">CANCELED</text>
			<g>
				<path style="opacity:0.55;fill:#CCB6A6;" d="M471.854,426.404c0,3.779-98.882,6.842-220.86,6.842s-220.86-3.063-220.86-6.842
					c0-3.779,98.882-6.842,220.86-6.842S471.854,422.626,471.854,426.404z"/>
				<g id="seat_1">
					<path style="fill:#7FBAD3;" d="M69.669,344.413c-3.692-9.991-10.208-9.774-10.208-9.774h-6.414h-7.27h-6.414
						c0,0-6.516-0.217-10.208,9.774c-3.692,9.991-6.516,26.932-5.864,32.796c0.652,5.864,6.082,9.774,6.082,9.774h16.404h7.27
						h16.405c0,0,5.43-3.909,6.082-9.774C76.185,371.345,73.361,354.404,69.669,344.413z"/>
					<path style="fill:#7FBAD3;" d="M77.271,396.105c-0.652-6.081-7.819-9.122-7.819-9.122H49.412H29.373
						c0,0-7.167,3.041-7.819,9.122c-0.652,6.082,4.344,8.471,9.991,8.471s17.867,0,17.867,0s12.22,0,17.867,0
						C72.927,404.576,77.922,402.187,77.271,396.105z"/>
					<rect x="46.966" y="404.576" style="fill:#3A404C;" width="3.909" height="22.154"/>
					<path style="fill:#6BA9BF;" d="M34.368,357.662c0-9.292,2.589-17.5,4.927-23.023c-0.697,0.01-6.667,0.376-10.139,9.774
						c-3.692,9.991-6.516,26.932-5.864,32.796c0.652,5.864,6.082,9.774,6.082,9.774h16.404h7.27h9.956
						C41.807,385.868,34.368,373.126,34.368,357.662z"/>
					<path style="fill:#6BA9BF;" d="M34.694,395.78c-0.335-4.521,1.862-7.226,4.077-8.796h-9.398c0,0-7.167,3.041-7.819,9.122
						c-0.652,6.082,4.344,8.471,9.991,8.471c1.705,0,4.008,0,6.394,0C36.447,402.652,34.992,399.8,34.694,395.78z"/>
					<path style="fill:#3A404C;" d="M77.189,395.641c-0.784,4.263-5.104,6.003-9.909,6.003c-5.647,0-17.867,0-17.867,0
						s-12.22,0-17.867,0c-4.805,0-9.125-1.74-9.909-6.003c-0.026,0.156-0.065,0.305-0.082,0.464
						c-0.652,6.082,4.344,8.471,9.991,8.471s17.867,0,17.867,0s12.22,0,17.867,0c5.647,0,10.643-2.389,9.991-8.471
						C77.254,395.946,77.215,395.797,77.189,395.641z"/>
				</g>
				<g id="seat_2">
					<path style="fill:#7FBAD3;" d="M126.273,344.413c-3.692-9.991-10.208-9.774-10.208-9.774h-6.414h-7.27h-6.414
						c0,0-6.516-0.217-10.208,9.774c-3.692,9.991-6.516,26.932-5.864,32.796c0.652,5.864,6.081,9.774,6.081,9.774h16.405h7.27
						h16.405c0,0,5.43-3.909,6.081-9.774C132.789,371.345,129.965,354.404,126.273,344.413z"/>
					<path style="fill:#7FBAD3;" d="M133.875,396.105c-0.652-6.081-7.819-9.122-7.819-9.122h-20.039H85.977
						c0,0-7.167,3.041-7.819,9.122c-0.652,6.082,4.344,8.471,9.991,8.471c5.647,0,17.867,0,17.867,0s12.22,0,17.867,0
						C129.531,404.576,134.526,402.187,133.875,396.105z"/>
					<rect x="103.57" y="404.576" style="fill:#3A404C;" width="3.909" height="22.154"/>
					<path style="fill:#6BA9BF;" d="M90.972,357.662c0-9.292,2.589-17.5,4.927-23.023c-0.697,0.01-6.667,0.376-10.14,9.774
						c-3.692,9.991-6.516,26.932-5.864,32.796c0.652,5.864,6.081,9.774,6.081,9.774h16.405h7.27h9.956
						C98.411,385.868,90.972,373.126,90.972,357.662z"/>
					<path style="fill:#6BA9BF;" d="M91.298,395.78c-0.335-4.521,1.862-7.226,4.077-8.796h-9.398c0,0-7.167,3.041-7.819,9.122
						c-0.652,6.082,4.344,8.471,9.991,8.471c1.704,0,4.008,0,6.394,0C93.051,402.652,91.596,399.8,91.298,395.78z"/>
					<path style="fill:#3A404C;" d="M133.793,395.641c-0.784,4.263-5.104,6.003-9.909,6.003c-5.647,0-17.867,0-17.867,0
						s-12.22,0-17.867,0c-4.805,0-9.125-1.74-9.909-6.003c-0.026,0.156-0.065,0.305-0.082,0.464
						c-0.652,6.082,4.344,8.471,9.991,8.471c5.647,0,17.867,0,17.867,0s12.22,0,17.867,0c5.647,0,10.642-2.389,9.991-8.471
						C133.857,395.946,133.818,395.797,133.793,395.641z"/>
				</g>
				<g id="seat_3">
					<path style="fill:#7FBAD3;" d="M182.877,344.413c-3.692-9.991-10.208-9.774-10.208-9.774h-6.414h-7.27h-6.414
						c0,0-6.516-0.217-10.208,9.774c-3.692,9.991-6.516,26.932-5.864,32.796c0.652,5.864,6.082,9.774,6.082,9.774h16.404h7.27
						h16.405c0,0,5.43-3.909,6.081-9.774C189.392,371.345,186.569,354.404,182.877,344.413z"/>
					<path style="fill:#7FBAD3;" d="M190.478,396.105c-0.652-6.081-7.819-9.122-7.819-9.122H162.62h-20.039
						c0,0-7.167,3.041-7.819,9.122c-0.652,6.082,4.344,8.471,9.991,8.471c5.647,0,17.867,0,17.867,0s12.22,0,17.867,0
						C186.134,404.576,191.13,402.187,190.478,396.105z"/>
					<rect x="160.173" y="404.576" style="fill:#3A404C;" width="3.909" height="22.154"/>
					<path style="fill:#6BA9BF;" d="M147.576,357.662c0-9.292,2.589-17.5,4.927-23.023c-0.697,0.01-6.667,0.376-10.14,9.774
						c-3.692,9.991-6.516,26.932-5.864,32.796c0.652,5.864,6.082,9.774,6.082,9.774h16.404h7.27h9.956
						C155.015,385.868,147.576,373.126,147.576,357.662z"/>
					<path style="fill:#6BA9BF;" d="M147.902,395.78c-0.335-4.521,1.862-7.226,4.077-8.796h-9.398c0,0-7.167,3.041-7.819,9.122
						c-0.652,6.082,4.344,8.471,9.991,8.471c1.704,0,4.008,0,6.394,0C149.654,402.652,148.2,399.8,147.902,395.78z"/>
					<path style="fill:#3A404C;" d="M190.396,395.641c-0.784,4.263-5.104,6.003-9.909,6.003c-5.647,0-17.867,0-17.867,0
						s-12.22,0-17.867,0c-4.805,0-9.125-1.74-9.909-6.003c-0.026,0.156-0.065,0.305-0.082,0.464
						c-0.652,6.082,4.344,8.471,9.991,8.471c5.647,0,17.867,0,17.867,0s12.22,0,17.867,0c5.647,0,10.643-2.389,9.991-8.471
						C190.461,395.946,190.422,395.797,190.396,395.641z"/>
				</g>
				<g id="seat_4">
					<path style="fill:#7FBAD3;" d="M239.48,344.413c-3.692-9.991-10.208-9.774-10.208-9.774h-6.414h-7.27h-6.414
						c0,0-6.516-0.217-10.208,9.774c-3.692,9.991-6.516,26.932-5.864,32.796c0.652,5.864,6.081,9.774,6.081,9.774h16.405h7.27
						h16.405c0,0,5.43-3.909,6.081-9.774C245.996,371.345,243.173,354.404,239.48,344.413z"/>
					<path style="fill:#7FBAD3;" d="M247.082,396.105c-0.652-6.081-7.819-9.122-7.819-9.122h-20.039h-20.039
						c0,0-7.167,3.041-7.819,9.122c-0.652,6.082,4.344,8.471,9.991,8.471c5.647,0,17.867,0,17.867,0s12.22,0,17.867,0
						C242.738,404.576,247.734,402.187,247.082,396.105z"/>
					<rect x="216.777" y="404.576" style="fill:#3A404C;" width="3.909" height="22.154"/>
					<path style="fill:#6BA9BF;" d="M204.18,357.662c0-9.292,2.589-17.5,4.927-23.023c-0.697,0.01-6.667,0.376-10.14,9.774
						c-3.692,9.991-6.516,26.932-5.864,32.796c0.652,5.864,6.081,9.774,6.081,9.774h16.405h7.27h9.956
						C211.618,385.868,204.18,373.126,204.18,357.662z"/>
					<path style="fill:#6BA9BF;" d="M204.506,395.78c-0.335-4.521,1.862-7.226,4.077-8.796h-9.398c0,0-7.167,3.041-7.819,9.122
						c-0.652,6.082,4.344,8.471,9.991,8.471c1.704,0,4.008,0,6.394,0C206.258,402.652,204.803,399.8,204.506,395.78z"/>
					<path style="fill:#3A404C;" d="M247,395.641c-0.784,4.263-5.104,6.003-9.909,6.003c-5.647,0-17.867,0-17.867,0
						s-12.22,0-17.867,0c-4.805,0-9.125-1.74-9.909-6.003c-0.026,0.156-0.065,0.305-0.082,0.464
						c-0.652,6.082,4.344,8.471,9.991,8.471c5.647,0,17.867,0,17.867,0s12.22,0,17.867,0c5.647,0,10.643-2.389,9.991-8.471
						C247.065,395.946,247.026,395.797,247,395.641z"/>
				</g>
				<g id="seat_5">
					<path style="fill:#7FBAD3;" d="M296.084,344.413c-3.692-9.991-10.208-9.774-10.208-9.774h-6.414h-7.27h-6.414
						c0,0-6.516-0.217-10.208,9.774c-3.692,9.991-6.516,26.932-5.864,32.796c0.652,5.864,6.081,9.774,6.081,9.774h16.405h7.27
						h16.405c0,0,5.43-3.909,6.081-9.774C302.6,371.345,299.776,354.404,296.084,344.413z"/>
					<path style="fill:#7FBAD3;" d="M303.686,396.105c-0.652-6.081-7.819-9.122-7.819-9.122h-20.039h-20.039
						c0,0-7.167,3.041-7.819,9.122c-0.652,6.082,4.344,8.471,9.991,8.471c5.647,0,17.867,0,17.867,0s12.22,0,17.867,0
						C299.342,404.576,304.337,402.187,303.686,396.105z"/>
					<rect x="273.381" y="404.576" style="fill:#3A404C;" width="3.909" height="22.154"/>
					<path style="fill:#6BA9BF;" d="M260.784,357.662c0-9.292,2.589-17.5,4.927-23.023c-0.697,0.01-6.666,0.376-10.139,9.774
						c-3.692,9.991-6.516,26.932-5.864,32.796c0.652,5.864,6.081,9.774,6.081,9.774h16.405h7.27h9.956
						C268.222,385.868,260.784,373.126,260.784,357.662z"/>
					<path style="fill:#6BA9BF;" d="M261.109,395.78c-0.335-4.521,1.862-7.226,4.077-8.796h-9.398c0,0-7.167,3.041-7.819,9.122
						c-0.652,6.082,4.344,8.471,9.991,8.471c1.704,0,4.008,0,6.394,0C262.862,402.652,261.407,399.8,261.109,395.78z"/>
					<path style="fill:#3A404C;" d="M303.604,395.641c-0.784,4.263-5.104,6.003-9.909,6.003c-5.647,0-17.867,0-17.867,0
						s-12.22,0-17.867,0c-4.805,0-9.125-1.74-9.909-6.003c-0.026,0.156-0.065,0.305-0.082,0.464
						c-0.652,6.082,4.344,8.471,9.991,8.471c5.647,0,17.867,0,17.867,0s12.22,0,17.867,0c5.647,0,10.642-2.389,9.991-8.471
						C303.669,395.946,303.63,395.797,303.604,395.641z"/>
				</g>
				<g id="seat_6">
					<path style="fill:#7FBAD3;" d="M352.688,344.413c-3.692-9.991-10.208-9.774-10.208-9.774h-6.414h-7.27h-6.414
						c0,0-6.516-0.217-10.208,9.774c-3.692,9.991-6.516,26.932-5.864,32.796c0.652,5.864,6.082,9.774,6.082,9.774h16.405h7.27
						h16.405c0,0,5.43-3.909,6.081-9.774C359.204,371.345,356.38,354.404,352.688,344.413z"/>
					<path style="fill:#7FBAD3;" d="M360.29,396.105c-0.652-6.081-7.819-9.122-7.819-9.122h-20.039h-20.039
						c0,0-7.167,3.041-7.819,9.122c-0.652,6.082,4.344,8.471,9.991,8.471c5.647,0,17.867,0,17.867,0s12.22,0,17.867,0
						S360.941,402.187,360.29,396.105z"/>
					<rect x="329.985" y="404.576" style="fill:#3A404C;" width="3.909" height="22.154"/>
					<path style="fill:#6BA9BF;" d="M317.387,357.662c0-9.292,2.589-17.5,4.927-23.023c-0.697,0.01-6.667,0.376-10.139,9.774
						c-3.692,9.991-6.516,26.932-5.864,32.796c0.652,5.864,6.082,9.774,6.082,9.774h16.405h7.27h9.956
						C324.826,385.868,317.387,373.126,317.387,357.662z"/>
					<path style="fill:#6BA9BF;" d="M317.713,395.78c-0.335-4.521,1.862-7.226,4.077-8.796h-9.398c0,0-7.167,3.041-7.819,9.122
						c-0.652,6.082,4.344,8.471,9.991,8.471c1.704,0,4.008,0,6.394,0C319.466,402.652,318.011,399.8,317.713,395.78z"/>
					<path style="fill:#3A404C;" d="M360.208,395.641c-0.784,4.263-5.104,6.003-9.909,6.003c-5.647,0-17.867,0-17.867,0
						s-12.22,0-17.867,0c-4.805,0-9.125-1.74-9.909-6.003c-0.026,0.156-0.065,0.305-0.082,0.464
						c-0.652,6.082,4.344,8.471,9.991,8.471c5.647,0,17.867,0,17.867,0s12.22,0,17.867,0s10.642-2.389,9.991-8.471
						C360.273,395.946,360.234,395.797,360.208,395.641z"/>
				</g>
				<g id="seat_7">
					<path style="fill:#7FBAD3;" d="M409.292,344.413c-3.692-9.991-10.208-9.774-10.208-9.774h-6.414h-7.27h-6.414
						c0,0-6.516-0.217-10.208,9.774c-3.692,9.991-6.516,26.932-5.864,32.796c0.652,5.864,6.082,9.774,6.082,9.774H385.4h7.27h16.405
						c0,0,5.43-3.909,6.082-9.774C415.807,371.345,412.984,354.404,409.292,344.413z"/>
					<path style="fill:#7FBAD3;" d="M416.893,396.105c-0.652-6.081-7.819-9.122-7.819-9.122h-20.039h-20.039
						c0,0-7.167,3.041-7.819,9.122c-0.652,6.082,4.344,8.471,9.991,8.471s17.867,0,17.867,0s12.22,0,17.867,0
						C412.55,404.576,417.545,402.187,416.893,396.105z"/>
					<rect x="386.589" y="404.576" style="fill:#3A404C;" width="3.91" height="22.154"/>
					<path style="fill:#6BA9BF;" d="M373.991,357.662c0-9.292,2.589-17.5,4.927-23.023c-0.697,0.01-6.667,0.376-10.139,9.774
						c-3.692,9.991-6.516,26.932-5.864,32.796c0.652,5.864,6.082,9.774,6.082,9.774H385.4h7.27h9.956
						C381.43,385.868,373.991,373.126,373.991,357.662z"/>
					<path style="fill:#6BA9BF;" d="M374.317,395.78c-0.335-4.521,1.862-7.226,4.077-8.796h-9.398c0,0-7.167,3.041-7.819,9.122
						c-0.652,6.082,4.344,8.471,9.991,8.471c1.704,0,4.008,0,6.394,0C376.07,402.652,374.615,399.8,374.317,395.78z"/>
					<path style="fill:#3A404C;" d="M416.811,395.641c-0.784,4.263-5.104,6.003-9.909,6.003c-5.647,0-17.867,0-17.867,0
						s-12.22,0-17.867,0c-4.805,0-9.125-1.74-9.909-6.003c-0.026,0.156-0.065,0.305-0.082,0.464
						c-0.652,6.082,4.344,8.471,9.991,8.471s17.867,0,17.867,0s12.22,0,17.867,0c5.647,0,10.643-2.389,9.991-8.471
						C416.876,395.946,416.837,395.797,416.811,395.641z"/>
				</g>
				<g id="seat_8">
					<path style="fill:#7FBAD3;" d="M465.895,344.413c-3.692-9.991-10.208-9.774-10.208-9.774h-6.414h-7.27h-6.414
						c0,0-6.516-0.217-10.208,9.774c-3.692,9.991-6.516,26.932-5.864,32.796c0.652,5.864,6.081,9.774,6.081,9.774h16.405h7.27
						h16.405c0,0,5.43-3.909,6.081-9.774C472.411,371.345,469.588,354.404,465.895,344.413z"/>
					<path style="fill:#7FBAD3;" d="M473.497,396.105c-0.652-6.081-7.819-9.122-7.819-9.122h-20.039H425.6
						c0,0-7.167,3.041-7.819,9.122c-0.652,6.082,4.344,8.471,9.991,8.471s17.868,0,17.868,0s12.22,0,17.867,0
						C469.153,404.576,474.149,402.187,473.497,396.105z"/>
					<rect x="443.192" y="404.576" style="fill:#3A404C;" width="3.909" height="22.154"/>
					<path style="fill:#6BA9BF;" d="M430.595,357.662c0-9.292,2.589-17.5,4.927-23.023c-0.697,0.01-6.667,0.376-10.139,9.774
						c-3.692,9.991-6.516,26.932-5.864,32.796c0.652,5.864,6.081,9.774,6.081,9.774h16.405h7.27h9.956
						C438.033,385.868,430.595,373.126,430.595,357.662z"/>
					<path style="fill:#6BA9BF;" d="M430.921,395.78c-0.335-4.521,1.862-7.226,4.077-8.796H425.6c0,0-7.167,3.041-7.819,9.122
						c-0.652,6.082,4.344,8.471,9.991,8.471c1.704,0,4.008,0,6.394,0C432.673,402.652,431.219,399.8,430.921,395.78z"/>
					<path style="fill:#3A404C;" d="M473.415,395.641c-0.784,4.263-5.104,6.003-9.909,6.003c-5.647,0-17.867,0-17.867,0
						s-12.22,0-17.868,0c-4.805,0-9.125-1.74-9.909-6.003c-0.026,0.156-0.065,0.305-0.082,0.464
						c-0.652,6.082,4.344,8.471,9.991,8.471s17.868,0,17.868,0s12.22,0,17.867,0c5.647,0,10.642-2.389,9.991-8.471
						C473.48,395.946,473.441,395.797,473.415,395.641z"/>
				</g>
			</g>
		</g>
	</g>
</g>
</svg>
