<svg xmlns="http://www.w3.org/2000/svg" width="256" height="256" viewBox="0 0 256 256" fill="none">


<circle cx="96" cy="62" r="16" fill="#F5EDE3" stroke="#E0B26B" stroke-width="8" stroke-linecap="round" stroke-linejoin="round"/>
<circle cx="160" cy="62" r="16" fill="#F5EDE3" stroke="#E0B26B" stroke-width="8" stroke-linecap="round" stroke-linejoin="round"/>
<path d="M96 78v28m64-28v28" stroke="#E0B26B" stroke-width="8" stroke-linecap="round" stroke-linejoin="round"/>
<path d="M96 106c-22 28-31 46-31 63 0 19 14 33 31 33s31-14 31-33c0-17-9-35-31-63z" fill="#F7D6DA" stroke="#6B4A3A" stroke-width="8" stroke-linecap="round" stroke-linejoin="round"/>
<path d="M160 106c-22 28-31 46-31 63 0 19 14 33 31 33s31-14 31-33c0-17-9-35-31-63z" fill="#F7D6DA" stroke="#6B4A3A" stroke-width="8" stroke-linecap="round" stroke-linejoin="round"/>
<path d="M86 178c8 7 18 7 26 0m38 0c8 7 18 7 26 0" stroke="#E7A09A" stroke-width="5" stroke-linecap="round"/>

</svg>
