<svg xmlns="http://www.w3.org/2000/svg" width="256" height="256" viewBox="0 0 256 256" fill="none">


<path d="M184 78c-19-20-48-29-78-20-42 13-65 57-52 99s57 65 99 52c18-6 33-18 43-33" stroke="#E0B26B" stroke-width="8" stroke-linecap="round" stroke-linejoin="round"/>
<path d="M184 78h-44m44 0V34" stroke="#E0B26B" stroke-width="8" stroke-linecap="round" stroke-linejoin="round"/>
<path d="M178 130l10 30 30 10-30 10-10 30-10-30-30-10 30-10 10-30z" fill="#F7D6DA" stroke="#E7A09A" stroke-width="6" stroke-linejoin="round"/>
<path d="M86 91l6 18 18 6-18 6-6 18-6-18-18-6 18-6 6-18z" fill="#F5EDE3" stroke="#E0B26B" stroke-width="5" stroke-linejoin="round"/>

</svg>
