<svg xmlns="http://www.w3.org/2000/svg" width="256" height="256" viewBox="0 0 256 256" fill="none">


<rect x="50" y="64" width="156" height="144" rx="18" fill="#FFFDF8" stroke="#6B4A3A" stroke-width="8" stroke-linecap="round" stroke-linejoin="round"/>
<path d="M50 102h156" stroke="#E7A09A" stroke-width="8" stroke-linecap="round" stroke-linejoin="round"/>
<path d="M84 46v36m88-36v36" stroke="#6B4A3A" stroke-width="8" stroke-linecap="round" stroke-linejoin="round"/>
<path d="M80 126h18m32 0h18m32 0h18M80 160h18m82 0h18M80 190h18m32 0h18m32 0h18" stroke="#F1E5D6" stroke-width="12" stroke-linecap="round"/>
<path d="M140 150l8 17 18 2-13 13 3 18-16-8-16 8 3-18-13-13 18-2 8-17z" fill="#E0B26B" stroke="#E0B26B" stroke-width="4" stroke-linejoin="round"/>

</svg>
